<?xml version="1.0" encoding="UTF-8" standalone="no"?>
<!-- Uploaded to: SVG Repo, www.svgrepo.com, Generator: SVG Repo Mixer Tools -->

<svg
   fill="#000000"
   height="450"
   width="800"
   version="1.1"
   id="Layer_1"
   viewBox="0 0 197.654 111.18024"
   xml:space="preserve"
   sodipodi:docname="mouse-svgrepo-com.svg"
   inkscape:version="1.3.1 (9b9bdc1480, 2023-11-25, custom)"
   xmlns:inkscape="http://www.inkscape.org/namespaces/inkscape"
   xmlns:sodipodi="http://sodipodi.sourceforge.net/DTD/sodipodi-0.dtd"
   xmlns="http://www.w3.org/2000/svg"
   xmlns:svg="http://www.w3.org/2000/svg"><defs
   id="defs4"><clipPath
     clipPathUnits="userSpaceOnUse"
     id="clipPath36"><rect
       style="opacity:0;fill:#a4a8f8;fill-opacity:1;stroke-width:0.247067"
       id="rect37"
       width="199.55719"
       height="113.10456"
       x="-0.4631348"
       y="85.154373" /></clipPath><clipPath
     clipPathUnits="userSpaceOnUse"
     id="clipPath37"><rect
       style="opacity:0;fill:#a4a8f8;fill-opacity:1;stroke-width:0.247067"
       id="rect38"
       width="199.55719"
       height="113.10456"
       x="-0.4631348"
       y="85.154373" /></clipPath></defs><sodipodi:namedview
   id="namedview4"
   pagecolor="#ffffff"
   bordercolor="#000000"
   borderopacity="0.25"
   inkscape:showpageshadow="2"
   inkscape:pageopacity="0.0"
   inkscape:pagecheckerboard="0"
   inkscape:deskcolor="#d1d1d1"
   inkscape:zoom="1.02"
   inkscape:cx="327.94118"
   inkscape:cy="421.56863"
   inkscape:window-width="1850"
   inkscape:window-height="1016"
   inkscape:window-x="70"
   inkscape:window-y="316"
   inkscape:window-maximized="1"
   inkscape:current-layer="Layer_1" />
<g
   id="g4"
   clip-path="url(#clipPath37)"
   transform="translate(0.05937303,-91.58865)">
	<g
   id="g3">
		<g
   id="g2">
			<path
   d="m 38.807,147.588 c -6.811,0 -12.352,5.541 -12.352,12.352 0,6.811 5.541,12.352 12.352,12.352 6.811,0 12.352,-5.541 12.352,-12.352 0,-6.811 -5.54,-12.352 -12.352,-12.352 z m 0,16.469 c -2.27,0 -4.117,-1.845 -4.117,-4.117 0,-2.272 1.847,-4.117 4.117,-4.117 2.27,0 4.117,1.845 4.117,4.117 0,2.272 -1.847,4.117 -4.117,4.117 z"
   id="path1" />
			<path
   id="path2"
   d="m 179.98337,5.1956558 c -0.0549,0.044545 -0.10999,0.088827 -0.16504,0.1331848 0.0641,-0.032922 0.12509,-0.071783 0.19061,-0.1018188 -0.008,-0.010657 -0.0172,-0.020817 -0.0256,-0.031366 z m -32.251,16.7016662 c -0.0264,0.08979 -0.0498,0.180186 -0.0772,0.269748 7.9e-4,0.02233 4.4e-4,0.03335 0.002,0.05646 -0.002,0.02014 -0.005,0.04018 -0.006,0.06032 0.003,0.01716 0.006,0.03932 0.009,0.05694 0.0539,-0.105669 0.0863,-0.169016 0.13897,-0.271678 -0.0223,-0.05723 -0.0443,-0.114584 -0.0666,-0.171789 z m 13.5559,53.693752 c 10e-4,0.0016 0.003,0.0032 0.004,0.0048 0.003,-0.0013 0.008,-0.0031 0.0111,-0.0043 -0.005,-1.56e-4 -0.01,-3.18e-4 -0.015,-4.82e-4 z m 24.42349,17.604524 c -0.0269,0.01951 -0.0519,0.03827 -0.0859,0.06321 0.0392,-0.0039 0.0785,-0.0076 0.11774,-0.01158 -0.0115,-0.01757 -0.0203,-0.03406 -0.0318,-0.05163 z m 1.97944,4.534075 c 0.006,0.0076 0.011,0.01559 0.0174,0.02268 0.0491,0.05434 0.111,0.0987 0.1771,0.130289 0.0128,0.0061 0.0398,-0.02325 0.0285,-0.03185 -0.0675,-0.0515 -0.14307,-0.09034 -0.22294,-0.121121 z M 49.735846,98.384016 c -1.203176,-0.01425 -2.41247,0.09242 -3.617705,0.327171 -6.111922,1.185987 -11.174263,5.388173 -14.252224,11.837043 -2.880961,6.03087 -3.680913,13.39265 -2.255939,20.72665 0.205,1.057 0.455819,2.11132 0.751819,3.14432 -17.974766,12.41574 -28.6115747,25.576 -28.6115747,35.53187 0,24.34574 43.0023767,27.70293 89.4707657,27.70293 44.781472,0 83.456222,-4.1e-4 83.456222,-33.70589 0,-5.262 -0.531,-11.40618 -2.199,-17.67305 4.75287,-1.121 17.64996,-5.21022 22.01796,-17.34009 2.72656,-7.56994 1.31245,-16.64841 -3.87346,-27.02928 -0.19386,-0.038 -0.40176,-0.10329 -0.62201,-0.20122 -0.30049,-0.13364 -0.21449,-0.0516 -0.318,-0.16021 -0.15354,-0.16105 -0.29189,-0.32027 -0.41548,-0.4758 -0.007,5.3e-4 -0.0118,0.004 -0.0193,0.004 -0.65201,0.0415 -1.28547,-0.0409 -1.91911,-0.18819 -0.55165,-0.26747 -1.13586,-0.41807 -1.71693,-0.6003 -0.0466,-0.0171 -0.096,-0.0224 -0.14332,-0.0367 -0.27594,0.0455 -0.55236,0.0896 -0.82999,0.11581 -0.1435,0.15396 -0.26042,0.31183 -0.48014,0.45312 -0.31932,0.20532 -0.62748,0.42344 -0.9183,0.66833 -0.48213,0.45389 -0.91097,0.95175 -1.31255,1.47517 5.201,9.3213 6.95921,17.19373 4.83423,23.14907 -3.29,9.21787 -14.96499,11.92503 -17.01099,12.33503 -7.13987,-16.34884 -23.85931,-31.37033 -61.22979,-31.37033 -11.460831,0 -24.434985,2.39614 -37.732803,6.95601 C 66.290742,104.50963 58.15807,98.483737 49.735846,98.384016 Z m -0.248998,8.233814 c 6.028922,0 12.275401,5.64142 15.064362,13.93229 l 1.355011,4.02498 3.982998,-1.47999 c 13.700818,-5.094 27.0599,-7.78794 38.633731,-7.78794 47.87335,0.001 57.92092,26.45023 57.92092,48.63997 0,24.29074 -27.1816,25.47305 -75.220951,25.47305 -34.873558,0 -81.2359874,-2.01925 -81.2359874,-19.46912 0,-6.08687 8.5161044,-17.86034 27.5388574,-30.43321 l 2.760208,-1.82598 -1.188048,-3.08787 c -0.602987,-1.56787 -1.074853,-3.21592 -1.400853,-4.89792 -1.090987,-5.61687 -0.522896,-11.16216 1.602078,-15.60916 1.925974,-4.033 4.904696,-6.63086 8.390644,-7.30586 0.595,-0.117 1.194043,-0.17324 1.79703,-0.17324 z" />
		</g>
	</g>
</g>
<path
   style="fill:#a4a8f8;fill-opacity:1;stroke-width:0.242216"
   d="m 78.96471,189.15544 c -30.203495,-0.50613 -49.083848,-3.14121 -59.82909,-8.35002 -6.90261,-3.34613 -9.9676942,-7.80287 -8.747208,-12.71893 1.81124,-7.29553 11.296668,-17.48859 25.06567,-26.93554 2.180796,-1.49627 4.19031,-2.89591 4.465582,-3.11038 l 0.5005,-0.38989 -0.875318,-2.2869 c -3.248575,-8.48717 -2.957398,-16.60759 0.820506,-22.88253 1.063314,-1.76614 3.442075,-3.97766 5.21302,-4.84656 1.284131,-0.63022 1.646352,-0.69319 3.974501,-0.69319 2.535353,0 2.583382,0.0138 4.687088,1.05323 4.824126,2.39048 8.316347,7.00474 10.687982,14.12216 0.731107,2.19415 0.956262,2.63223 1.284914,2.50038 3.752269,-1.50679 11.247153,-4.02394 15.416308,-5.17773 9.822401,-2.71818 18.08376,-3.89227 27.418565,-3.89657 10.58324,-0.007 18.9463,1.15022 26.56026,3.66844 7.73502,2.55798 13.52262,6.0011 18.44586,10.97326 6.28591,6.3482 10.15559,14.54245 11.63788,24.64349 0.53745,3.6624 0.72787,10.32066 0.36596,12.79587 -0.64181,4.38912 -2.10162,7.54848 -4.83754,10.46901 -5.39266,5.75679 -14.9192,8.8009 -31.99416,10.22373 -9.44478,0.78703 -31.441691,1.15414 -50.26128,0.83867 z M 41.338531,172.11236 c 2.321884,-0.49208 4.146865,-1.44081 5.854519,-3.04338 2.658441,-2.4949 4.037123,-5.59736 4.037123,-9.08505 0,-8.28581 -7.819074,-14.2341 -15.801291,-12.02068 -5.878981,1.63023 -9.830317,7.65492 -8.955772,13.65516 1.050553,7.20784 7.82062,11.98698 14.865421,10.49395 z"
   id="path4"
   clip-path="url(#clipPath36)"
   transform="translate(0.05937303,-91.58865)" /></svg>
