<?xml version="1.0" encoding="utf-8"?>

<!DOCTYPE svg PUBLIC "-//W3C//DTD SVG 1.1//EN" "http://www.w3.org/Graphics/SVG/1.1/DTD/svg11.dtd">
<!-- Uploaded to: SVG Repo, www.svgrepo.com, Generator: SVG Repo Mixer Tools -->
<svg height="800px" width="800px" version="1.1" id="_x32_" xmlns="http://www.w3.org/2000/svg" xmlns:xlink="http://www.w3.org/1999/xlink" 
	 viewBox="0 0 512 512"  xml:space="preserve">
<style type="text/css">
	.st0{fill:#000000;}
</style>
<g>
	<path class="st0" d="M506.046,300.288l-74.596-74.588c22.354-11.759,37.606-35.174,37.606-62.184
		c0-38.806-31.452-70.266-70.259-70.266c-12.745,0-24.66,3.448-34.959,9.38c9.639,14.169,15.281,31.258,15.281,49.646
		c0,20.479-7.051,39.304-18.766,54.31l-10.357-7.184c10.29-12.946,16.467-29.302,16.467-47.126
		c0-41.906-33.965-75.886-75.886-75.886c-38.97,0-71.037,29.383-75.352,67.204c-5.71,0.8-11.5,1.802-17.409,3.062
		C92.517,169.061,80.09,275.316,79.378,317.556c-7.63,0-15.103,0-22.094,0c-12.679,0.007-23.593,2.164-32.512,5.982
		c-8.89,3.826-15.874,9.313-20.226,16.186C1.646,344.299,0,349.534,0,354.887c-0.007,5.242,1.602,10.484,4.568,15.082
		c2.966,4.619,7.222,8.63,12.546,11.966c10.692,6.636,25.676,10.752,45.472,11.508c13.502,0.497,23.592,2.202,30.889,4.464
		c7.317,2.269,11.796,5.041,14.532,7.592c1.824,1.705,2.929,3.322,3.663,4.871c0.964,2.06,1.304,4.092,1.312,6.065
		c0.03,3.558-1.298,6.777-1.438,7.036v0.014c-2.025,4.152-0.342,9.157,3.796,11.233c4.174,2.084,9.238,0.4,11.314-3.774
		c0.304-0.682,3.143-6.258,3.196-14.51c0-2.981-0.408-6.317-1.542-9.78c-1.128-3.456-3.003-7.006-5.761-10.306
		c-5.546-6.629-14.355-12.011-27.233-15.459c-8.608-2.313-19.122-3.819-32.105-4.308c-13.309-0.49-23.54-2.729-30.828-5.747
		c-7.318-3.01-11.574-6.754-13.621-9.972c-1.379-2.166-1.883-4.086-1.89-5.977c0.008-1.928,0.556-3.944,1.943-6.161
		c1.379-2.202,3.64-4.537,6.933-6.687c6.554-4.286,17.201-7.637,31.54-7.615c7.095,0,14.68,0,22.443,0
		c0.023,0.342,0.037,0.549,0.037,0.549h411.912c8.215,0,15.63-4.946,18.773-12.53C513.6,314.842,511.858,306.101,506.046,300.288z
		 M400.19,278.764c-7.763,0-14.05-6.295-14.05-14.058c0-7.762,6.287-14.05,14.05-14.05c7.763,0,14.058,6.288,14.058,14.05
		C414.248,272.469,407.954,278.764,400.19,278.764z"/>
</g>
</svg>