<?xml version="1.0" encoding="UTF-8" standalone="no"?>
<!-- Created with Inkscape (http://www.inkscape.org/) -->
<svg xmlns:dc="http://purl.org/dc/elements/1.1/" xmlns:cc="http://web.resource.org/cc/" xmlns:rdf="http://www.w3.org/1999/02/22-rdf-syntax-ns#" xmlns:svg="http://www.w3.org/2000/svg" xmlns="http://www.w3.org/2000/svg" xmlns:sodipodi="http://sodipodi.sourceforge.net/DTD/sodipodi-0.dtd" xmlns:inkscape="http://www.inkscape.org/namespaces/inkscape" version="1.0" width="478.52609" height="250.3026" id="svg2161" sodipodi:version="0.32" inkscape:version="0.45.1" sodipodi:docname="simple_mouse.svg" inkscape:output_extension="org.inkscape.output.svg.inkscape" sodipodi:docbase="C:\Documents and Settings\Sean.SEAN-2FB0E8D2CE\Desktop">
  <metadata id="metadata17">
    <rdf:RDF>
      <cc:Work rdf:about="">
        <dc:format>image/svg+xml</dc:format>
        <dc:type rdf:resource="http://purl.org/dc/dcmitype/StillImage"/>
      </cc:Work>
    </rdf:RDF>
  </metadata>
  <sodipodi:namedview inkscape:window-height="573" inkscape:window-width="744" inkscape:pageshadow="2" inkscape:pageopacity="0.0" guidetolerance="10.0" gridtolerance="10.0" objecttolerance="10.0" borderopacity="1.0" bordercolor="#666666" pagecolor="#ffffff" id="base" inkscape:zoom="0.68857269" inkscape:cx="170.56341" inkscape:cy="146.67858" inkscape:window-x="44" inkscape:window-y="58" inkscape:current-layer="svg2161"/>
  <defs id="defs2163"/>
  <path id="path2169" style="fill:#ffffff;fill-opacity:1;fill-rule:evenodd;stroke:#000000;stroke-width:9.10000038;stroke-linecap:butt;stroke-linejoin:miter;stroke-miterlimit:4;stroke-dasharray:none;stroke-opacity:1" d="M 473.97609,162.67475 C 462.33645,189.08197 91.681036,223.95673 46.419286,150.72292 C 35.412776,14.54596 156.51465,5.44729 156.51465,5.44729 C 230.26423,-6.71956 394.94676,107.92617 473.97609,162.67475 z "/>
  <path id="path14603" style="fill:#ffffff;fill-opacity:1;fill-rule:evenodd;stroke:#000000;stroke-width:9.10000038;stroke-miterlimit:4;stroke-dasharray:none;stroke-opacity:1" d="M 357.72675,46.991609 C 357.30612,59.134587 346.67385,68.62193 333.97891,68.182174 C 321.28397,67.742417 311.33369,57.542089 311.75432,45.399112 C 312.17496,33.256134 322.80723,23.768791 335.50217,24.208547 C 348.1971,24.648303 358.14739,34.848632 357.72675,46.991609 z "/>
  <path id="path13632" style="fill:#ffffff;fill-opacity:1;fill-rule:evenodd;stroke:#000000;stroke-width:9.10000038;stroke-miterlimit:4;stroke-dasharray:none;stroke-opacity:1" d="M 384.29633,61.849899 C 383.8757,73.992877 373.24343,83.48022 360.54849,83.040464 C 347.85355,82.600707 337.90327,72.400379 338.3239,60.257402 C 338.74454,48.114424 349.37681,38.627081 362.07175,39.066837 C 374.76668,39.506593 384.71697,49.706922 384.29633,61.849899 z "/>
  <path id="path13630" style="fill:#a63232;fill-opacity:1;fill-rule:evenodd;stroke:#000000;stroke-width:9.10000038;stroke-miterlimit:4;stroke-dasharray:none;stroke-opacity:1" d="M 368.82635,121.24666 C 368.77855,122.62654 367.62118,123.70641 366.2413,123.65861 C 364.86141,123.61082 363.78154,122.45345 363.82934,121.07356 C 363.87714,119.69368 365.03451,118.61381 366.41439,118.66161 C 367.79428,118.70941 368.87415,119.86678 368.82635,121.24666 L 368.82635,121.24666 z "/>
  <path id="path14605" style="fill:none;fill-rule:evenodd;stroke:#000000;stroke-width:8.70000172;stroke-linecap:butt;stroke-linejoin:miter;stroke-miterlimit:4;stroke-dasharray:none;stroke-opacity:1" d="M 48.427976,150.50661 C -99.250021,219.01589 171.15047,244.9403 175.19968,245.9526"/>
  <path id="path9635" style="fill:none;fill-rule:evenodd;stroke:#000000;stroke-width:3.56975245;stroke-linecap:butt;stroke-linejoin:miter;stroke-miterlimit:4;stroke-dasharray:none;stroke-opacity:1" d="M 444.70942,159.30405 C 435.29514,177.95142 419.56982,193.50737 401.81624,208.06981"/>
  <path id="path10608" style="fill:none;fill-rule:evenodd;stroke:#000000;stroke-width:3.38187695;stroke-linecap:butt;stroke-linejoin:miter;stroke-miterlimit:4;stroke-dasharray:none;stroke-opacity:1" d="M 444.39092,159.55711 C 424.91681,156.2862 390.89665,152.98877 352.20163,149.6828"/>
  <path id="path10610" style="fill:none;fill-rule:evenodd;stroke:#000000;stroke-width:3.3028698;stroke-linecap:butt;stroke-linejoin:miter;stroke-miterlimit:4;stroke-dasharray:none;stroke-opacity:1" d="M 444.84488,159.17117 C 425.9413,166.14669 393.27959,171.55167 356.1962,176.45186"/>
  <path id="path10612" style="fill:none;fill-rule:evenodd;stroke:#000000;stroke-width:4.04575062;stroke-linecap:butt;stroke-linejoin:miter;stroke-miterlimit:4;stroke-dasharray:none;stroke-opacity:1" d="M 443.95243,160.97226 C 428.63704,174.79166 402.4661,186.09553 372.80637,196.59093"/>
  <path id="path19406" style="fill:#ffffff;fill-opacity:1;fill-rule:evenodd;stroke:none;stroke-width:9.30000019;stroke-miterlimit:4;stroke-dasharray:none;stroke-opacity:1" d="M 365.14349,119.74765 C 365.14349,120.85221 364.24805,121.74765 363.14349,121.74765 C 362.03893,121.74765 361.14349,120.85221 361.14349,119.74765 C 361.14349,118.64308 362.03893,117.74765 363.14349,117.74765 C 364.24805,117.74765 365.14349,118.64308 365.14349,119.74765 L 365.14349,119.74765 z "/>
</svg>