<svg version="1.1" id="Layer_1" xmlns="http://www.w3.org/2000/svg" xmlns:xlink="http://www.w3.org/1999/xlink" x="0px" y="0px"
	 width="100%" viewBox="0 0 512 512" enable-background="new 0 0 512 512" xml:space="preserve">
<path fill="none" opacity="1.000000" stroke="none" 
	d="
M229.000000,513.000000 
	C153.033920,513.000000 77.067833,513.000000 1.050874,513.000000 
	C1.050874,342.443420 1.050874,171.886826 1.050874,1.000000 
	C79.687790,1.000000 158.376053,1.000000 237.402191,1.380482 
	C229.832870,3.832741 221.812119,5.550317 214.039566,8.042135 
	C189.898819,15.781484 170.134293,29.912165 153.985382,49.425934 
	C136.697586,70.315887 126.718033,94.369942 124.254379,121.084633 
	C122.632698,138.669388 124.026054,156.295761 129.694321,173.485886 
	C137.766754,197.967102 151.135468,218.498901 170.709885,235.387192 
	C191.987762,253.745178 216.697372,263.994385 244.205078,266.728088 
	C261.768951,268.473572 279.378571,266.869263 296.584747,261.255096 
	C321.478088,253.132706 342.364777,239.559845 359.108917,219.440018 
	C374.268372,201.224457 384.116852,180.738449 388.171997,157.221390 
	C391.094604,140.271957 391.070648,123.411057 387.737061,106.807198 
	C383.199249,84.205551 373.023621,63.888428 357.831085,46.494270 
	C341.591614,27.901417 321.551636,14.616050 297.967773,7.042718 
	C290.441162,4.625745 282.663055,2.992084 275.000000,1.000003 
	C354.298065,1.000000 433.596100,1.000000 512.947083,1.000000 
	C512.947083,171.555466 512.947083,342.110962 512.947083,513.000000 
	C436.645569,513.000000 360.290619,513.000000 283.610626,512.609314 
	C287.175354,511.803680 291.170898,511.820953 294.936768,510.899445 
	C311.933868,506.740234 329.049469,502.917847 345.772308,497.824677 
	C364.277435,492.188690 381.353729,483.111420 397.682251,472.770111 
	C418.651337,459.489899 437.164917,443.409576 453.842651,424.939362 
	C465.459473,412.074066 475.304810,398.070679 484.682098,383.644012 
	C487.139648,379.863129 487.798096,375.804230 485.110718,371.436035 
	C479.557465,362.409363 474.834290,352.840729 468.887604,344.094788 
	C460.118195,331.197540 449.368469,320.039215 436.996552,310.384644 
	C423.827728,300.108215 409.747742,291.321503 394.065582,285.807922 
	C381.998718,281.565430 369.382233,278.624847 356.798492,276.206879 
	C348.616730,274.634674 341.852905,279.373840 335.042847,283.851318 
	C316.962921,295.738525 297.290863,303.570831 275.524933,306.148438 
	C261.623993,307.794617 247.746994,308.046143 234.108948,305.778992 
	C213.953262,302.428375 195.132568,295.168152 178.289993,283.124359 
	C172.442383,278.942810 166.242645,274.651733 158.250549,276.000732 
	C152.027145,277.051178 145.532257,277.310913 139.638458,279.326752 
	C127.259552,283.560730 114.833946,287.971100 103.087891,293.670135 
	C84.793327,302.546448 69.031334,314.946655 55.730270,330.579193 
	C45.914383,342.115662 37.542080,354.438293 30.503557,367.820282 
	C26.576736,375.286133 26.760281,382.051788 31.405386,388.923767 
	C45.358028,409.565308 60.744377,428.856781 79.632729,445.411194 
	C94.225822,458.201019 109.563072,469.576294 126.403801,479.240479 
	C152.219727,494.055115 179.734863,503.712433 208.908676,509.017853 
	C215.625046,510.239258 222.303879,511.667145 229.000000,513.000000 
z"/>
<path fill="#000000" opacity="1.000000" stroke="none" 
	d="
M229.468658,513.000000 
	C222.303879,511.667145 215.625046,510.239258 208.908676,509.017853 
	C179.734863,503.712433 152.219727,494.055115 126.403801,479.240479 
	C109.563072,469.576294 94.225822,458.201019 79.632729,445.411194 
	C60.744377,428.856781 45.358028,409.565308 31.405386,388.923767 
	C26.760281,382.051788 26.576736,375.286133 30.503557,367.820282 
	C37.542080,354.438293 45.914383,342.115662 55.730270,330.579193 
	C69.031334,314.946655 84.793327,302.546448 103.087891,293.670135 
	C114.833946,287.971100 127.259552,283.560730 139.638458,279.326752 
	C145.532257,277.310913 152.027145,277.051178 158.250549,276.000732 
	C166.242645,274.651733 172.442383,278.942810 178.289993,283.124359 
	C195.132568,295.168152 213.953262,302.428375 234.108948,305.778992 
	C247.746994,308.046143 261.623993,307.794617 275.524933,306.148438 
	C297.290863,303.570831 316.962921,295.738525 335.042847,283.851318 
	C341.852905,279.373840 348.616730,274.634674 356.798492,276.206879 
	C369.382233,278.624847 381.998718,281.565430 394.065582,285.807922 
	C409.747742,291.321503 423.827728,300.108215 436.996552,310.384644 
	C449.368469,320.039215 460.118195,331.197540 468.887604,344.094788 
	C474.834290,352.840729 479.557465,362.409363 485.110718,371.436035 
	C487.798096,375.804230 487.139648,379.863129 484.682098,383.644012 
	C475.304810,398.070679 465.459473,412.074066 453.842651,424.939362 
	C437.164917,443.409576 418.651337,459.489899 397.682251,472.770111 
	C381.353729,483.111420 364.277435,492.188690 345.772308,497.824677 
	C329.049469,502.917847 311.933868,506.740234 294.936768,510.899445 
	C291.170898,511.820953 287.175354,511.803680 283.142761,512.609314 
	C265.312439,513.000000 247.624878,513.000000 229.468658,513.000000 
z"/>
<path fill="#000000" opacity="1.000000" stroke="none" 
	d="
M274.531342,1.000003 
	C282.663055,2.992084 290.441162,4.625745 297.967773,7.042718 
	C321.551636,14.616050 341.591614,27.901417 357.831085,46.494270 
	C373.023621,63.888428 383.199249,84.205551 387.737061,106.807198 
	C391.070648,123.411057 391.094604,140.271957 388.171997,157.221390 
	C384.116852,180.738449 374.268372,201.224457 359.108917,219.440018 
	C342.364777,239.559845 321.478088,253.132706 296.584747,261.255096 
	C279.378571,266.869263 261.768951,268.473572 244.205078,266.728088 
	C216.697372,263.994385 191.987762,253.745178 170.709885,235.387192 
	C151.135468,218.498901 137.766754,197.967102 129.694321,173.485886 
	C124.026054,156.295761 122.632698,138.669388 124.254379,121.084633 
	C126.718033,94.369942 136.697586,70.315887 153.985382,49.425934 
	C170.134293,29.912165 189.898819,15.781484 214.039566,8.042135 
	C221.812119,5.550317 229.832870,3.832741 237.870041,1.380482 
	C250.020889,1.000000 262.041779,1.000000 274.531342,1.000003 
z"/>
</svg>